<?xml version="1.0" encoding="UTF-8" standalone="no"?><!DOCTYPE svg PUBLIC "-//W3C//DTD SVG 1.1//EN" "http://www.w3.org/Graphics/SVG/1.1/DTD/svg11.dtd"><!-- Generated by graphviz version 2.40.1 (20161225.0304)
 --><!-- Title: G Pages: 1 --><svg xmlns="http://www.w3.org/2000/svg" xmlns:xlink="http://www.w3.org/1999/xlink" width="1003pt" height="530pt" viewBox="0.00 0.00 1003.27 530.00">
<g id="graph0" class="graph" transform="scale(1 1) rotate(0) translate(4 526)">
<title>G</title>
<polygon fill="#ffffff" stroke="transparent" points="-4,4 -4,-526 999.268,-526 999.268,4 -4,4"/>
<!-- sphere_head1 -->
<g id="node1" class="node">
<title>sphere_head1</title>
<polygon fill="none" stroke="#000000" points="256.9244,-522 163.9972,-522 163.9972,-486 256.9244,-486 256.9244,-522"/>
<text text-anchor="middle" x="210.4608" y="-499.8" font-family="Times,serif" font-size="14.00" fill="#000000">sphere_head1</text>
</g>
<!-- smoothunion1 -->
<g id="node2" class="node">
<title>smoothunion1</title>
<polygon fill="none" stroke="#000000" points="390.6937,-468 294.4607,-468 294.4607,-432 390.6937,-432 390.6937,-468"/>
<text text-anchor="middle" x="342.5772" y="-445.8" font-family="Times,serif" font-size="14.00" fill="#000000">smoothunion1</text>
</g>
<!-- sphere_head1&#45;&#45;smoothunion1 -->
<g id="edge1" class="edge">
<title>sphere_head1--smoothunion1</title>
<path fill="none" stroke="#000000" d="M254.8212,-485.8686C268.7644,-480.1696 284.1584,-473.8775 298.109,-468.1755"/>
</g>
<!-- smoothsubtraction1 -->
<g id="node5" class="node">
<title>smoothsubtraction1</title>
<polygon fill="none" stroke="#000000" points="553.2841,-407 426.4187,-407 426.4187,-371 553.2841,-371 553.2841,-407"/>
<text text-anchor="middle" x="489.8514" y="-384.8" font-family="Times,serif" font-size="14.00" fill="#000000">smoothsubtraction1</text>
</g>
<!-- smoothunion1&#45;&#45;smoothsubtraction1 -->
<g id="edge4" class="edge">
<title>smoothunion1--smoothsubtraction1</title>
<path fill="none" stroke="#000000" d="M386.3656,-431.8631C405.2737,-424.0315 427.3425,-414.8908 446.2317,-407.067"/>
</g>
<!-- sphere_head2 -->
<g id="node3" class="node">
<title>sphere_head2</title>
<polygon fill="none" stroke="#000000" points="256.9244,-468 163.9972,-468 163.9972,-432 256.9244,-432 256.9244,-468"/>
<text text-anchor="middle" x="210.4608" y="-445.8" font-family="Times,serif" font-size="14.00" fill="#000000">sphere_head2</text>
</g>
<!-- sphere_head2&#45;&#45;smoothunion1 -->
<g id="edge2" class="edge">
<title>sphere_head2--smoothunion1</title>
<path fill="none" stroke="#000000" d="M257.0401,-450C269.0753,-450 282.0578,-450 294.1833,-450"/>
</g>
<!-- sphere_eye1 -->
<g id="node4" class="node">
<title>sphere_eye1</title>
<polygon fill="none" stroke="#000000" points="385.5408,-407 299.6136,-407 299.6136,-371 385.5408,-371 385.5408,-407"/>
<text text-anchor="middle" x="342.5772" y="-384.8" font-family="Times,serif" font-size="14.00" fill="#000000">sphere_eye1</text>
</g>
<!-- sphere_eye1&#45;&#45;smoothsubtraction1 -->
<g id="edge3" class="edge">
<title>sphere_eye1--smoothsubtraction1</title>
<path fill="none" stroke="#000000" d="M385.5709,-389C398.3912,-389 412.7197,-389 426.5517,-389"/>
</g>
<!-- shell -->
<g id="node25" class="node">
<title>shell</title>
<polygon fill="none" stroke="#000000" points="671.8935,-394 617.8935,-394 617.8935,-358 671.8935,-358 671.8935,-394"/>
<text text-anchor="middle" x="644.8935" y="-371.8" font-family="Times,serif" font-size="14.00" fill="#000000">shell</text>
</g>
<!-- smoothsubtraction1&#45;&#45;shell -->
<g id="edge23" class="edge">
<title>smoothsubtraction1--shell</title>
<path fill="none" stroke="#000000" d="M553.3603,-383.6749C575.7723,-381.7957 599.8006,-379.781 617.6126,-378.2875"/>
</g>
<!-- right_hand1 -->
<g id="node6" class="node">
<title>right_hand1</title>
<polygon fill="none" stroke="#000000" points="104.8584,-522 21.5442,-522 21.5442,-486 104.8584,-486 104.8584,-522"/>
<text text-anchor="middle" x="63.2013" y="-499.8" font-family="Times,serif" font-size="14.00" fill="#000000">right_hand1</text>
</g>
<!-- smoothunion2 -->
<g id="node7" class="node">
<title>smoothunion2</title>
<polygon fill="none" stroke="#000000" points="258.5773,-414 162.3443,-414 162.3443,-378 258.5773,-378 258.5773,-414"/>
<text text-anchor="middle" x="210.4608" y="-391.8" font-family="Times,serif" font-size="14.00" fill="#000000">smoothunion2</text>
</g>
<!-- right_hand1&#45;&#45;smoothunion2 -->
<g id="edge5" class="edge">
<title>right_hand1--smoothunion2</title>
<path fill="none" stroke="#000000" d="M104.9668,-490.2491C112.5599,-486.6479 120.0701,-482.2613 126.4026,-477 148.5887,-458.5669 141.2451,-442.6051 162.4026,-423 165.772,-419.8778 169.5675,-416.9772 173.5107,-414.3249"/>
</g>
<!-- right_hand -->
<g id="node10" class="node">
<title>right_hand</title>
<polygon fill="none" stroke="#000000" points="380.7344,-340 304.42,-340 304.42,-304 380.7344,-304 380.7344,-340"/>
<text text-anchor="middle" x="342.5772" y="-317.8" font-family="Times,serif" font-size="14.00" fill="#000000">right_hand</text>
</g>
<!-- smoothunion2&#45;&#45;right_hand -->
<g id="edge8" class="edge">
<title>smoothunion2--right_hand</title>
<path fill="none" stroke="#000000" d="M242.7801,-377.8976C263.2533,-366.4303 289.6367,-351.6526 310.1337,-340.172"/>
</g>
<!-- right_hand2 -->
<g id="node8" class="node">
<title>right_hand2</title>
<polygon fill="none" stroke="#000000" points="104.8584,-468 21.5442,-468 21.5442,-432 104.8584,-432 104.8584,-468"/>
<text text-anchor="middle" x="63.2013" y="-445.8" font-family="Times,serif" font-size="14.00" fill="#000000">right_hand2</text>
</g>
<!-- right_hand2&#45;&#45;smoothunion2 -->
<g id="edge6" class="edge">
<title>right_hand2--smoothunion2</title>
<path fill="none" stroke="#000000" d="M105.0061,-434.6702C122.8628,-428.1222 143.8119,-420.4401 162.3126,-413.6559"/>
</g>
<!-- right_hand3 -->
<g id="node9" class="node">
<title>right_hand3</title>
<polygon fill="none" stroke="#000000" points="104.8584,-414 21.5442,-414 21.5442,-378 104.8584,-378 104.8584,-414"/>
<text text-anchor="middle" x="63.2013" y="-391.8" font-family="Times,serif" font-size="14.00" fill="#000000">right_hand3</text>
</g>
<!-- right_hand3&#45;&#45;smoothunion2 -->
<g id="edge7" class="edge">
<title>right_hand3--smoothunion2</title>
<path fill="none" stroke="#000000" d="M105.0061,-396C122.8628,-396 143.8119,-396 162.3126,-396"/>
</g>
<!-- mirror -->
<g id="node18" class="node">
<title>mirror</title>
<polygon fill="none" stroke="#000000" points="516.8514,-326 462.8514,-326 462.8514,-290 516.8514,-290 516.8514,-326"/>
<text text-anchor="middle" x="489.8514" y="-303.8" font-family="Times,serif" font-size="14.00" fill="#000000">mirror</text>
</g>
<!-- right_hand&#45;&#45;mirror -->
<g id="edge15" class="edge">
<title>right_hand--mirror</title>
<path fill="none" stroke="#000000" d="M380.8873,-318.3582C406.4557,-315.9277 439.471,-312.7892 462.4281,-310.6069"/>
</g>
<!-- right_leg1 -->
<g id="node11" class="node">
<title>right_leg1</title>
<polygon fill="none" stroke="#000000" points="99.7497,-360 26.6529,-360 26.6529,-324 99.7497,-324 99.7497,-360"/>
<text text-anchor="middle" x="63.2013" y="-337.8" font-family="Times,serif" font-size="14.00" fill="#000000">right_leg1</text>
</g>
<!-- smoothunion3 -->
<g id="node12" class="node">
<title>smoothunion3</title>
<polygon fill="none" stroke="#000000" points="258.5773,-255 162.3443,-255 162.3443,-219 258.5773,-219 258.5773,-255"/>
<text text-anchor="middle" x="210.4608" y="-232.8" font-family="Times,serif" font-size="14.00" fill="#000000">smoothunion3</text>
</g>
<!-- right_leg1&#45;&#45;smoothunion3 -->
<g id="edge9" class="edge">
<title>right_leg1--smoothunion3</title>
<path fill="none" stroke="#000000" d="M100.0611,-328.7771C108.993,-324.8988 118.2967,-320.2632 126.4026,-315 152.7845,-297.8701 178.6207,-272.1732 194.5354,-255.0092"/>
</g>
<!-- right_leg -->
<g id="node17" class="node">
<title>right_leg</title>
<polygon fill="none" stroke="#000000" points="375.6257,-259 309.5287,-259 309.5287,-223 375.6257,-223 375.6257,-259"/>
<text text-anchor="middle" x="342.5772" y="-236.8" font-family="Times,serif" font-size="14.00" fill="#000000">right_leg</text>
</g>
<!-- smoothunion3&#45;&#45;right_leg -->
<g id="edge14" class="edge">
<title>smoothunion3--right_leg</title>
<path fill="none" stroke="#000000" d="M258.5316,-238.4554C275.3534,-238.9647 293.8598,-239.525 309.2147,-239.9899"/>
</g>
<!-- right_leg2 -->
<g id="node13" class="node">
<title>right_leg2</title>
<polygon fill="none" stroke="#000000" points="99.7497,-306 26.6529,-306 26.6529,-270 99.7497,-270 99.7497,-306"/>
<text text-anchor="middle" x="63.2013" y="-283.8" font-family="Times,serif" font-size="14.00" fill="#000000">right_leg2</text>
</g>
<!-- right_leg2&#45;&#45;smoothunion3 -->
<g id="edge10" class="edge">
<title>right_leg2--smoothunion3</title>
<path fill="none" stroke="#000000" d="M99.9812,-275.2621C118.8082,-268.7418 141.966,-260.7216 162.2083,-253.7112"/>
</g>
<!-- right_leg3 -->
<g id="node14" class="node">
<title>right_leg3</title>
<polygon fill="none" stroke="#000000" points="99.7497,-252 26.6529,-252 26.6529,-216 99.7497,-216 99.7497,-252"/>
<text text-anchor="middle" x="63.2013" y="-229.8" font-family="Times,serif" font-size="14.00" fill="#000000">right_leg3</text>
</g>
<!-- right_leg3&#45;&#45;smoothunion3 -->
<g id="edge11" class="edge">
<title>right_leg3--smoothunion3</title>
<path fill="none" stroke="#000000" d="M99.9812,-234.7493C118.8082,-235.1328 141.966,-235.6046 162.2083,-236.017"/>
</g>
<!-- right_leg4 -->
<g id="node15" class="node">
<title>right_leg4</title>
<polygon fill="none" stroke="#000000" points="99.7497,-198 26.6529,-198 26.6529,-162 99.7497,-162 99.7497,-198"/>
<text text-anchor="middle" x="63.2013" y="-175.8" font-family="Times,serif" font-size="14.00" fill="#000000">right_leg4</text>
</g>
<!-- right_leg4&#45;&#45;smoothunion3 -->
<g id="edge12" class="edge">
<title>right_leg4--smoothunion3</title>
<path fill="none" stroke="#000000" d="M99.9812,-194.2365C119.3193,-201.7217 143.2267,-210.9756 163.8504,-218.9584"/>
</g>
<!-- right_leg5 -->
<g id="node16" class="node">
<title>right_leg5</title>
<polygon fill="none" stroke="#000000" points="99.7497,-144 26.6529,-144 26.6529,-108 99.7497,-108 99.7497,-144"/>
<text text-anchor="middle" x="63.2013" y="-121.8" font-family="Times,serif" font-size="14.00" fill="#000000">right_leg5</text>
</g>
<!-- right_leg5&#45;&#45;smoothunion3 -->
<g id="edge13" class="edge">
<title>right_leg5--smoothunion3</title>
<path fill="none" stroke="#000000" d="M99.8691,-138.8704C108.8991,-142.7816 118.2966,-147.5209 126.4026,-153 154.0926,-171.7168 180.3987,-200.3831 195.9839,-218.9114"/>
</g>
<!-- right_leg&#45;&#45;mirror -->
<g id="edge16" class="edge">
<title>right_leg--mirror</title>
<path fill="none" stroke="#000000" d="M375.6284,-256.0361C401.9187,-267.9964 438.2463,-284.5231 462.8189,-295.702"/>
</g>
<!-- union -->
<g id="node23" class="node">
<title>union</title>
<polygon fill="none" stroke="#000000" points="671.8935,-333 617.8935,-333 617.8935,-297 671.8935,-297 671.8935,-333"/>
<text text-anchor="middle" x="644.8935" y="-310.8" font-family="Times,serif" font-size="14.00" fill="#000000">union</text>
</g>
<!-- mirror&#45;&#45;union -->
<g id="edge21" class="edge">
<title>mirror--union</title>
<path fill="none" stroke="#000000" d="M516.8577,-309.2193C545.1411,-310.4963 589.3145,-312.4907 617.6765,-313.7712"/>
</g>
<!-- right_ear_cylinder1 -->
<g id="node19" class="node">
<title>right_ear_cylinder1</title>
<polygon fill="none" stroke="#000000" points="126.6045,-90 -.2019,-90 -.2019,-54 126.6045,-54 126.6045,-90"/>
<text text-anchor="middle" x="63.2013" y="-67.8" font-family="Times,serif" font-size="14.00" fill="#000000">right_ear_cylinder1</text>
</g>
<!-- subtraction1 -->
<g id="node20" class="node">
<title>subtraction1</title>
<polygon fill="none" stroke="#000000" points="253.1673,-90 167.7543,-90 167.7543,-54 253.1673,-54 253.1673,-90"/>
<text text-anchor="middle" x="210.4608" y="-67.8" font-family="Times,serif" font-size="14.00" fill="#000000">subtraction1</text>
</g>
<!-- right_ear_cylinder1&#45;&#45;subtraction1 -->
<g id="edge17" class="edge">
<title>right_ear_cylinder1--subtraction1</title>
<path fill="none" stroke="#000000" d="M126.5072,-72C140.383,-72 154.7578,-72 167.6076,-72"/>
</g>
<!-- right_ear -->
<g id="node22" class="node">
<title>right_ear</title>
<polygon fill="none" stroke="#000000" points="375.6104,-124 309.544,-124 309.544,-88 375.6104,-88 375.6104,-124"/>
<text text-anchor="middle" x="342.5772" y="-101.8" font-family="Times,serif" font-size="14.00" fill="#000000">right_ear</text>
</g>
<!-- subtraction1&#45;&#45;right_ear -->
<g id="edge19" class="edge">
<title>subtraction1--right_ear</title>
<path fill="none" stroke="#000000" d="M253.3552,-83.0388C271.5889,-87.7313 292.5186,-93.1175 309.5223,-97.4934"/>
</g>
<!-- right_ear_cylinder2 -->
<g id="node21" class="node">
<title>right_ear_cylinder2</title>
<polygon fill="none" stroke="#000000" points="126.6045,-36 -.2019,-36 -.2019,0 126.6045,0 126.6045,-36"/>
<text text-anchor="middle" x="63.2013" y="-13.8" font-family="Times,serif" font-size="14.00" fill="#000000">right_ear_cylinder2</text>
</g>
<!-- right_ear_cylinder2&#45;&#45;subtraction1 -->
<g id="edge18" class="edge">
<title>right_ear_cylinder2--subtraction1</title>
<path fill="none" stroke="#000000" d="M112.6462,-36.1314C130.5271,-42.6884 150.5487,-50.0303 167.7977,-56.3555"/>
</g>
<!-- right_ear&#45;&#45;mirror -->
<g id="edge20" class="edge">
<title>right_ear--mirror</title>
<path fill="none" stroke="#000000" d="M355.9066,-124.2824C383.9459,-162.7409 448.7384,-251.6098 476.6583,-289.9044"/>
</g>
<!-- smoothunion4 -->
<g id="node24" class="node">
<title>smoothunion4</title>
<polygon fill="none" stroke="#000000" points="832.8943,-333 736.6613,-333 736.6613,-297 832.8943,-297 832.8943,-333"/>
<text text-anchor="middle" x="784.7778" y="-310.8" font-family="Times,serif" font-size="14.00" fill="#000000">smoothunion4</text>
</g>
<!-- union&#45;&#45;smoothunion4 -->
<g id="edge22" class="edge">
<title>union--smoothunion4</title>
<path fill="none" stroke="#000000" d="M672.1967,-315C690.4839,-315 715.0598,-315 736.584,-315"/>
</g>
<!-- smoothsubtraction2 -->
<g id="node29" class="node">
<title>smoothsubtraction2</title>
<polygon fill="none" stroke="#000000" points="995.4847,-306 868.6193,-306 868.6193,-270 995.4847,-270 995.4847,-306"/>
<text text-anchor="middle" x="932.052" y="-283.8" font-family="Times,serif" font-size="14.00" fill="#000000">smoothsubtraction2</text>
</g>
<!-- smoothunion4&#45;&#45;smoothsubtraction2 -->
<g id="edge27" class="edge">
<title>smoothunion4--smoothsubtraction2</title>
<path fill="none" stroke="#000000" d="M833.0009,-306.1592C844.4098,-304.0676 856.7465,-301.8059 868.713,-299.612"/>
</g>
<!-- shell&#45;&#45;smoothunion4 -->
<g id="edge24" class="edge">
<title>shell--smoothunion4</title>
<path fill="none" stroke="#000000" d="M672.1967,-364.0938C692.4716,-355.2524 720.4766,-343.0401 743.4826,-333.0078"/>
</g>
<!-- cylinder_mouth1 -->
<g id="node26" class="node">
<title>cylinder_mouth1</title>
<polygon fill="none" stroke="#000000" points="700.5462,-279 589.2408,-279 589.2408,-243 700.5462,-243 700.5462,-279"/>
<text text-anchor="middle" x="644.8935" y="-256.8" font-family="Times,serif" font-size="14.00" fill="#000000">cylinder_mouth1</text>
</g>
<!-- subtraction3 -->
<g id="node27" class="node">
<title>subtraction3</title>
<polygon fill="none" stroke="#000000" points="827.4843,-279 742.0713,-279 742.0713,-243 827.4843,-243 827.4843,-279"/>
<text text-anchor="middle" x="784.7778" y="-256.8" font-family="Times,serif" font-size="14.00" fill="#000000">subtraction3</text>
</g>
<!-- cylinder_mouth1&#45;&#45;subtraction3 -->
<g id="edge25" class="edge">
<title>cylinder_mouth1--subtraction3</title>
<path fill="none" stroke="#000000" d="M700.5814,-261C714.2956,-261 728.7733,-261 741.7828,-261"/>
</g>
<!-- subtraction3&#45;&#45;smoothsubtraction2 -->
<g id="edge28" class="edge">
<title>subtraction3--smoothsubtraction2</title>
<path fill="none" stroke="#000000" d="M827.7715,-268.8821C840.5918,-271.2325 854.9203,-273.8593 868.7523,-276.3952"/>
</g>
<!-- cylinder_mouth2 -->
<g id="node28" class="node">
<title>cylinder_mouth2</title>
<polygon fill="none" stroke="#000000" points="700.5462,-225 589.2408,-225 589.2408,-189 700.5462,-189 700.5462,-225"/>
<text text-anchor="middle" x="644.8935" y="-202.8" font-family="Times,serif" font-size="14.00" fill="#000000">cylinder_mouth2</text>
</g>
<!-- cylinder_mouth2&#45;&#45;subtraction3 -->
<g id="edge26" class="edge">
<title>cylinder_mouth2--subtraction3</title>
<path fill="none" stroke="#000000" d="M691.8621,-225.1314C708.0537,-231.382 726.0933,-238.3458 741.9377,-244.4623"/>
</g>
</g>
</svg>